<svg fill="none" height="343" viewBox="0 0 1080 343" width="1080" xmlns="http://www.w3.org/2000/svg" xmlns:xlink="http://www.w3.org/1999/xlink"><mask id="a" height="343" maskUnits="userSpaceOnUse" width="343" x="0" y="0"><path d="m0 0h342.857v342.857h-342.857z" fill="#fff"/></mask><mask id="b" height="343" maskUnits="userSpaceOnUse" width="343" x="0" y="0"><path d="m171.429 342.857c-45.773 0-88.8675-17.81-121.2036-50.225-32.4151-32.336-50.2254-75.431-50.2254-121.203 0-45.773 17.8103-88.8675 50.2254-121.2036 32.3361-32.4151 75.4306-50.2254 121.2036-50.2254 45.772 0 88.867 17.8103 121.203 50.2254 32.415 32.4063 50.225 75.4306 50.225 121.2036 0 45.772-17.81 88.867-50.225 121.203-32.336 32.415-75.431 50.225-121.203 50.225zm0-332.5818c-43.033 0-83.5192 16.7915-113.9407 47.2131-30.4216 30.4215-47.2131 70.9077-47.2131 113.9407 0 43.032 16.7915 83.518 47.2131 113.94 30.4215 30.421 70.9077 47.213 113.9407 47.213 43.032 0 83.518-16.792 113.94-47.213 30.421-30.422 47.213-70.908 47.213-113.94 0-43.033-16.792-83.5192-47.213-113.9407-30.422-30.4216-70.908-47.2131-113.94-47.2131z" fill="#fff"/></mask><mask id="c" height="242" maskUnits="userSpaceOnUse" width="242" x="51" y="51"><path d="m51.0526 51.0504h241.1244v241.1236h-241.1244z" fill="#fff"/></mask><mask id="d" height="87" maskUnits="userSpaceOnUse" width="68" x="139" y="85"><path d="m205.829 86.8471v83.7289h-65.18v-83.7289z" fill="#fff" stroke="#fff" stroke-width="2.26682"/></mask><mask id="e" height="87" maskUnits="userSpaceOnUse" width="69" x="139" y="85"><path d="m163.122 86.8471h20.507c5.775.0001 11.314 2.2199 15.485 6.1895l.4.3896v.001c4.221 4.2131 6.588 9.9308 6.588 15.8928v38.501c0 12.415-10.066 22.473-22.473 22.473h-20.507c-12.415 0-22.473-10.058-22.473-22.473v-38.501c0-12.4157 10.058-22.4728 22.473-22.4729z" fill="#fff" stroke="#fff" stroke-width="2.26682"/></mask><mask id="f" height="34" maskUnits="userSpaceOnUse" width="35" x="156" y="69"><path d="m189.407 70.2932v30.8678h-31.456v-30.8678z" fill="#fff" stroke="#fff" stroke-width="2.26682"/></mask><g mask="url(#a)"><g mask="url(#b)"><path d="m0 0h342.857v342.857h-342.857z" fill="#008a45"/></g></g><g mask="url(#c)"><path d="m275.394 127.649h-60.193v-60.1847c0-1.0802-.106-2.1428-.316-3.2055-.211-1.0539-.519-2.0814-.931-3.0738-.413-1.0011-.922-1.9408-1.52-2.8454-.597-.8958-1.282-1.7213-2.037-2.4854-.764-.764-1.599-1.4402-2.494-2.0374-.896-.5972-1.836-1.1066-2.837-1.5193-.992-.4128-2.02-.7202-3.074-.931-1.062-.2107-2.125-.3161-3.205-.3161h-54.713c-1.081 0-2.152.1054-3.206.3161-1.054.2108-2.081.5182-3.082.931-.993.4127-1.941.9221-2.837 1.5193s-1.721 1.2734-2.485 2.0374c-.764.7641-1.441 1.5896-2.047 2.4854-.597.9046-1.097 1.8443-1.51 2.8454-.413.9924-.729 2.0199-.94 3.0738-.211 1.0627-.316 2.1253-.316 3.2055v60.1847h-60.1845c-1.0802 0-2.1428.105-3.2055.316-1.0538.211-2.0813.527-3.0737.94-1.0012.412-1.9409.913-2.8455 1.51-.8957.606-1.7213 1.282-2.4853 2.046-.7641.764-1.4403 1.59-2.0375 2.486s-1.1066 1.844-1.5193 2.836c-.4128 1.002-.7202 2.029-.9309 3.083-.2108 1.054-.3162 2.125-.3162 3.205v54.714c0 1.08.1054 2.142.3162 3.205.2107 1.054.5181 2.081.9309 3.074.4127 1.001.9221 1.941 1.5193 2.836.5972.896 1.2734 1.731 2.0375 2.495.764.755 1.5896 1.44 2.4853 2.037.9046.597 1.8443 1.107 2.8455 1.519.9924.413 2.0199.721 3.0737.931 1.0627.211 2.1253.316 3.2055.316h60.1845v60.194c0 1.071.105 2.143.316 3.196.211 1.063.527 2.091.94 3.083s.913 1.941 1.51 2.837c.606.895 1.283 1.73 2.047 2.485.764.764 1.589 1.449 2.485 2.046s1.844 1.107 2.837 1.511c1.001.413 2.028.729 3.082.939 1.054.211 2.125.317 3.206.317h54.713c1.08 0 2.143-.106 3.205-.317 1.054-.21 2.082-.526 3.074-.939 1.001-.404 1.941-.914 2.837-1.511.895-.597 1.73-1.282 2.494-2.046.755-.755 1.44-1.59 2.037-2.485.598-.896 1.107-1.845 1.52-2.837.412-.992.72-2.02.931-3.083.21-1.053.316-2.125.316-3.196v-60.194h60.193c1.071 0 2.143-.105 3.197-.316 1.062-.21 2.09-.518 3.082-.931.993-.412 1.941-.922 2.837-1.519s1.73-1.282 2.485-2.037c.764-.764 1.449-1.599 2.046-2.495.598-.895 1.107-1.835 1.511-2.836.413-.993.729-2.02.94-3.074.21-1.063.316-2.125.316-3.205v-54.714c0-1.08-.106-2.151-.316-3.205-.211-1.054-.527-2.081-.94-3.083-.404-.992-.913-1.94-1.511-2.836-.597-.896-1.282-1.722-2.046-2.486-.755-.764-1.589-1.44-2.485-2.046-.896-.597-1.844-1.098-2.837-1.51-.992-.413-2.02-.729-3.082-.94-1.054-.211-2.126-.316-3.197-.316z" fill="#008a45"/></g><g mask="url(#d)"><g mask="url(#e)"><path d="m204.944 86.8472c.159 0 .301.0268.436.081.097.0414.19.0971.276.168l.084.0771c.109.1082.19.2295.246.3594.056.1394.081.2738.081.4287v49.6206c0 1.881-.156 3.746-.479 5.59l-.148.789-.001.004c-.364 1.842-.884 3.637-1.559 5.381l-.3.744v.002c-.72 1.738-1.583 3.398-2.585 4.981l-.437.673c-1.197 1.791-2.547 3.438-4.066 4.957-1.329 1.329-2.762 2.535-4.294 3.611l-.662.453-.003.002c-1.559 1.047-3.195 1.951-4.908 2.705l-.739.315-.004.001c-1.738.72-3.515 1.285-5.349 1.7l-.786.167c-2.107.416-4.229.629-6.376.629-1.878 0-3.745-.163-5.593-.483l-.791-.146c-1.843-.372-3.638-.893-5.381-1.568l-.744-.298-.005-.002-.74-.315c-1.468-.647-2.88-1.402-4.235-2.265l-.673-.44-.005-.003-.664-.453c-1.314-.921-2.549-1.938-3.714-3.048l-.576-.562c-1.331-1.331-2.536-2.758-3.611-4.291l-.452-.663-.004-.005-.44-.673c-.86-1.354-1.612-2.767-2.263-4.238l-.318-.741-.001-.002-.298-.744c-.579-1.495-1.043-3.027-1.393-4.595l-.166-.786-.001-.004-.148-.789c-.323-1.844-.479-3.709-.479-5.59v-49.6206c0-.1548.024-.2894.08-.4287.041-.097.098-.1889.169-.2744l.077-.085c.109-.1085.23-.1906.361-.2461.137-.0548.271-.08.436-.08.155 0 .29.0242.429.08.097.0414.189.0982.274.169l.085.0771c.108.1081.19.2296.245.3594.056.1395.082.2737.082.4287v49.6206c0 1.757.154 3.491.449 5.208l.134.734.001.006c.344 1.717.834 3.384 1.456 5.01l.275.694.003.006c.67 1.611 1.473 3.16 2.409 4.635l.409.628c.972 1.451 2.058 2.812 3.262 4.078l.523.537c1.238 1.238 2.574 2.356 3.998 3.36l.616.424c1.454.974 2.984 1.815 4.577 2.523l.686.295.002.001c1.621.671 3.283 1.194 4.985 1.577l.733.157c1.963.392 3.943.584 5.939.584 1.747 0 3.481-.147 5.202-.447l.738-.137c1.714-.343 3.388-.827 5.02-1.456l.698-.278.002-.001c1.61-.67 3.159-1.473 4.634-2.409l.628-.409c1.451-.972 2.813-2.058 4.078-3.262l.536-.522c1.239-1.238 2.357-2.574 3.362-3.998l.423-.617c1.113-1.661 2.054-3.423 2.812-5.267l-.001-.001c.764-1.846 1.349-3.742 1.733-5.705.392-1.96.592-3.94.592-5.948v-49.6206c0-.1549.026-.2893.081-.4287.042-.0969.098-.189.168-.2744l.079-.085c.108-.108.228-.1907.358-.2461.139-.056.275-.08.43-.08z" fill="#008a45" stroke="#e9f3e9" stroke-width="2.26682"/></g></g><path d="m168.979 210.658 4.295-122.4238" stroke="#e9f3e9" stroke-linecap="round" stroke-width="5.10036"/><g mask="url(#f)"><path d="m173.363 70.2932c8.516.0002 15.412 6.8959 15.412 15.4122 0 8.5077-6.897 15.4116-15.412 15.4116-8.508 0-15.412-6.9042-15.412-15.4116 0-8.516 6.904-15.4122 15.412-15.4122z" fill="#e9f3e9" stroke="#e9f3e9" stroke-width="2.26682"/></g><g fill="#008a45"><path d="m400.971 146.571v-73.2338h27.772l13.371 50.8118 13.68-50.8118h27.052v73.2338h-18.103l.925-55.851-16.354 55.851h-14.708l-16.252-55.7481.617 55.7481zm153.749-73.2338v15.4285h-39.6v12.6513h36.206v14.812h-36.206v14.297h40.526v16.045h-59.554v-73.2338zm11.99 73.2338v-73.131h31.372c11.314 0 20.057 3.0857 26.434 9.4629 6.377 6.3771 9.566 15.2228 9.566 26.7431 0 12.24-3.189 21.497-9.36 27.668-6.275 6.172-15.532 9.257-27.669 9.257zm19.029-15.84h10.491c12.343 0 18.617-6.891 18.617-20.571 0-6.686-1.748-11.8286-5.142-15.4286-3.395-3.7028-8.332-5.4514-14.812-5.4514h-9.154zm107.772-12.754h19.029c-.103 2.88-.411 5.04-.823 6.686-.411 1.646-1.337 3.703-2.571 6.274-5.76 11.623-15.84 17.383-30.24 17.383-11.212 0-20.16-3.6-26.743-10.8s-9.874-16.457-9.874-27.771c0-11.2119 3.394-20.3661 10.285-27.4633 6.789-7.0971 15.737-10.6971 26.64-10.6971 8.537 0 16.046 2.5714 22.423 7.5086 6.377 5.0399 9.874 11.7257 10.492 20.0571h-18.823c-1.646-7.6114-6.48-11.52-14.503-11.52-5.246 0-9.463 2.0571-12.549 6.1714-3.085 4.1143-4.628 9.5653-4.628 16.3543 0 6.686 1.543 12.034 4.628 15.943 3.086 4.011 7.303 5.966 12.549 5.966 8.434 0 13.268-4.629 14.708-14.092zm87.716-44.6398v15.4285h-39.6v12.6513h36.206v14.812h-36.206v14.297h40.526v16.045h-59.555v-73.2338zm11.681 73.2338v-73.2338h19.132l26.434 46.2858-.823-46.2858h18.514v73.2338h-18.617l-26.743-47.0053.515 47.0053zm134.456-73.2338v16.2514h-21.703v56.9824h-19.337v-56.9824h-21.703v-16.2514zm67.211 0v15.4285h-39.6v12.6513h36.206v14.812h-36.206v14.297h40.526v16.045h-59.555v-73.2338zm11.575 73.2338v-73.2338h38.16c7.2 0 13.17 1.8514 17.8 5.4514s6.99 8.8457 6.99 15.7371c0 8.5373-3.8 14.5033-11.31 17.8973 4.83 1.646 7.92 4.834 9.26 9.463.82 3.085 1.64 8.228 2.26 15.531 0 .206 0 .72.1 1.44 0 .72.1 1.234.1 1.44 0 .309.11.72.21 1.337 0 .617.1 1.029.21 1.337.1.309.2.72.41 1.132.1.514.31.926.51 1.337.21.411.52.72.82 1.131h-19.44c-.61-1.234-1.02-2.777-1.23-4.422-.31-1.646-.51-3.703-.62-6.172-.2-2.366-.31-3.908-.31-4.731-.51-4.32-1.74-7.406-3.6-9.257-1.95-1.749-5.14-2.675-9.46-2.675h-11.72v27.257zm19.14-40.834h13.47c3.6 0 6.38-.617 8.43-1.851 2.06-1.235 3.09-3.6 3.09-7.2003 0-5.6571-3.91-8.5371-11.73-8.5371h-13.26z"/><path d="m430.114 261.743c-4.628 0-8.943-.743-12.943-2.229-3.943-1.543-7.371-3.714-10.285-6.514-2.915-2.8-5.2-6.086-6.858-9.857-1.6-3.772-2.399-7.914-2.399-12.429 0-4.514.799-8.657 2.399-12.428 1.658-3.772 3.943-7.057 6.858-9.857 2.971-2.8 6.428-4.943 10.371-6.429 3.943-1.543 8.257-2.314 12.943-2.314 5.2 0 9.886.914 14.057 2.743 4.229 1.771 7.771 4.4 10.629 7.885l-8.915 8.229c-2.057-2.343-4.343-4.086-6.857-5.229-2.514-1.2-5.257-1.8-8.228-1.8-2.8 0-5.372.457-7.715 1.372-2.343.914-4.371 2.228-6.085 3.943-1.715 1.714-3.058 3.742-4.029 6.085-.914 2.343-1.371 4.943-1.371 7.8s.457 5.457 1.371 7.8c.971 2.343 2.314 4.372 4.029 6.086 1.714 1.714 3.742 3.029 6.085 3.943s4.915 1.371 7.715 1.371c2.971 0 5.714-.571 8.228-1.714 2.514-1.2 4.8-3 6.857-5.4l8.915 8.229c-2.858 3.485-6.4 6.142-10.629 7.971-4.171 1.829-8.886 2.743-14.143 2.743zm25.175-1.029 26.743-60h13.714l26.828 60h-14.571l-21.943-52.971h5.486l-22.029 52.971zm13.371-12.857 3.686-10.543h30.857l3.771 10.543zm60.139 12.857v-60h11.486l25.543 42.343h-6.086l25.115-42.343h11.4l.171 60h-13.029l-.085-40.028h2.4l-20.057 33.685h-6.258l-20.485-33.685h2.914v40.028zm81.864 0v-60h29.314c7.543 0 13.2 1.429 16.972 4.286 3.828 2.857 5.743 6.629 5.743 11.314 0 3.143-.772 5.886-2.315 8.229-1.542 2.286-3.657 4.057-6.342 5.314-2.686 1.257-5.772 1.886-9.258 1.886l1.629-3.514c3.771 0 7.114.628 10.029 1.885 2.914 1.2 5.171 3 6.771 5.4 1.657 2.4 2.486 5.343 2.486 8.829 0 5.143-2.029 9.171-6.086 12.086-4.057 2.857-10.029 4.285-17.914 4.285zm13.8-10.457h16.2c3.6 0 6.314-.571 8.143-1.714 1.886-1.2 2.829-3.086 2.829-5.657 0-2.515-.943-4.372-2.829-5.572-1.829-1.257-4.543-1.885-8.143-1.885h-17.228v-10.115h14.828c3.372 0 5.943-.571 7.714-1.714 1.829-1.2 2.743-3 2.743-5.4 0-2.343-.914-4.086-2.743-5.229-1.771-1.2-4.342-1.8-7.714-1.8h-13.8zm80.884 11.486c-4.743 0-9.143-.772-13.2-2.314-4-1.543-7.485-3.715-10.457-6.515-2.914-2.8-5.2-6.085-6.857-9.857-1.6-3.771-2.4-7.886-2.4-12.343s.8-8.571 2.4-12.343c1.657-3.771 3.971-7.057 6.943-9.857 2.971-2.8 6.457-4.971 10.457-6.514s8.343-2.314 13.029-2.314c4.742 0 9.085.771 13.028 2.314 4 1.543 7.457 3.714 10.372 6.514 2.971 2.8 5.285 6.086 6.942 9.857 1.658 3.715 2.486 7.829 2.486 12.343 0 4.457-.828 8.6-2.486 12.429-1.657 3.771-3.971 7.057-6.942 9.857-2.915 2.743-6.372 4.886-10.372 6.429-3.943 1.542-8.257 2.314-12.943 2.314zm-.085-11.829c2.685 0 5.142-.457 7.371-1.371 2.286-.914 4.286-2.229 6-3.943s3.029-3.743 3.943-6.086c.971-2.343 1.457-4.943 1.457-7.8s-.486-5.457-1.457-7.8c-.914-2.343-2.229-4.371-3.943-6.085-1.657-1.715-3.629-3.029-5.914-3.943-2.286-.915-4.772-1.372-7.457-1.372-2.686 0-5.172.457-7.458 1.372-2.228.914-4.2 2.228-5.914 3.943-1.714 1.714-3.057 3.742-4.028 6.085-.915 2.343-1.372 4.943-1.372 7.8 0 2.8.457 5.4 1.372 7.8.971 2.343 2.285 4.372 3.942 6.086 1.715 1.714 3.715 3.029 6 3.943 2.286.914 4.772 1.371 7.458 1.371zm43.264 10.8v-60h27.257c6.514 0 12.257 1.257 17.229 3.772 4.971 2.457 8.857 5.914 11.657 10.371s4.2 9.743 4.2 15.857c0 6.057-1.4 11.343-4.2 15.857-2.8 4.458-6.686 7.943-11.657 10.458-4.972 2.457-10.715 3.685-17.229 3.685zm13.886-11.4h12.685c4 0 7.457-.743 10.372-2.228 2.971-1.543 5.257-3.715 6.857-6.515 1.657-2.8 2.486-6.085 2.486-9.857 0-3.828-.829-7.114-2.486-9.857-1.6-2.8-3.886-4.943-6.857-6.428-2.915-1.543-6.372-2.315-10.372-2.315h-12.685zm56.929 11.4v-60h13.885v60zm20.239 0 26.743-60h13.714l26.829 60h-14.572l-21.943-52.971h5.486l-22.029 52.971zm13.371-12.857 3.686-10.543h30.857l3.772 10.543z"/></g></svg>